<?xml version="1.0" encoding="UTF-8" standalone="no"?>
<!-- Created with Inkscape (http://www.inkscape.org/) -->

<svg
   width="130mm"
   height="200mm"
   viewBox="0 0 130 200"
   version="1.1"
   id="svg1"
   inkscape:export-filename="aichatbg.svg"
   inkscape:export-xdpi="96"
   inkscape:export-ydpi="96"
   inkscape:version="1.3.2 (091e20e, 2023-11-25, custom)"
   sodipodi:docname="bgaichat.svg"
   xmlns:inkscape="http://www.inkscape.org/namespaces/inkscape"
   xmlns:sodipodi="http://sodipodi.sourceforge.net/DTD/sodipodi-0.dtd"
   xmlns="http://www.w3.org/2000/svg"
   xmlns:svg="http://www.w3.org/2000/svg">
  <sodipodi:namedview
     id="namedview1"
     pagecolor="#505050"
     bordercolor="#ffffff"
     borderopacity="1"
     inkscape:showpageshadow="0"
     inkscape:pageopacity="0"
     inkscape:pagecheckerboard="1"
     inkscape:deskcolor="#505050"
     inkscape:document-units="mm"
     inkscape:zoom="1.0544998"
     inkscape:cx="340.91995"
     inkscape:cy="287.8142"
     inkscape:window-width="1920"
     inkscape:window-height="1051"
     inkscape:window-x="-9"
     inkscape:window-y="-9"
     inkscape:window-maximized="1"
     inkscape:current-layer="svg1"
     showgrid="false" />
  <defs
     id="defs1" />
  <ellipse
     style="fill:#121212;fill-opacity:1;stroke-width:0.5161"
     id="path1"
     cx="61.22176"
     cy="124.45078"
     rx="17.061802"
     ry="46.418137" />
  <path
     style="fill:#121212;fill-opacity:1;stroke-width:0.339022"
     id="path12"
     sodipodi:type="arc"
     sodipodi:cx="24.608442"
     sodipodi:cy="106.34239"
     sodipodi:rx="51.199024"
     sodipodi:ry="50.475647"
     sodipodi:start="0"
     sodipodi:end="6.2828919"
     sodipodi:open="true"
     sodipodi:arc-type="arc"
     d="M 75.807467,106.34239 A 51.199024,50.475647 0 0 1 24.612198,156.81804 51.199024,50.475647 0 0 1 -26.590581,106.3498 51.199024,50.475647 0 0 1 24.597176,55.866746 51.199024,50.475647 0 0 1 75.807464,106.32758" />
  <path
     style="fill:#121212;fill-opacity:1;stroke-width:0.406339"
     id="path11"
     sodipodi:type="arc"
     sodipodi:cx="-6.1752734"
     sodipodi:cy="64.547264"
     sodipodi:rx="45.010132"
     sodipodi:ry="65.425446"
     sodipodi:start="0"
     sodipodi:end="6.2828919"
     sodipodi:arc-type="arc"
     d="M 38.834858,64.547264 A 45.010132,65.425446 0 0 1 -6.1719718,129.97271 45.010132,65.425446 0 0 1 -51.185405,64.556862 45.010132,65.425446 0 0 1 -6.1851781,-0.87817987 45.010132,65.425446 0 0 1 38.834856,64.528068"
     sodipodi:open="true" />
  <circle
     style="fill:#ff0000;fill-opacity:1;stroke-width:0.339022"
     id="path7"
     cx="14.159661"
     cy="35.049553"
     r="7.9571486" />
  <circle
     style="fill:#ff0000;fill-opacity:1;stroke-width:0.339022"
     id="path9"
     cx="15.365291"
     cy="69.691284"
     r="3.3757598" />
  <circle
     style="fill:#ff0000;fill-opacity:1;stroke-width:0.339022"
     id="path8"
     cx="26.376696"
     cy="52.249851"
     r="4.5813885" />
  <circle
     style="fill:#ff2a2a;fill-opacity:1;stroke-width:0.161439"
     id="path9-5"
     cx="24.262823"
     cy="51.152233"
     r="1.6075047" />
  <circle
     style="fill:#ff2a2a;fill-opacity:1;stroke-width:0.258303"
     id="path9-5-9"
     cx="10.692746"
     cy="32.944836"
     r="2.5720077" />
  <circle
     style="fill:#ff0000;fill-opacity:1;stroke-width:0.517455"
     id="path8-4"
     cx="49.134621"
     cy="90.80777"
     r="6.9926457" />
  <circle
     style="fill:#f83131;fill-opacity:1;stroke-width:0.246408"
     id="path9-5-90"
     cx="47.354931"
     cy="88.167953"
     r="2.4535599" />
  <circle
     style="fill:#f85252;fill-opacity:1;stroke-width:0.0930406"
     id="path9-5-90-7"
     cx="46.446411"
     cy="87.264702"
     r="0.92643034" />
  <circle
     style="fill:#9d9590;fill-opacity:1;stroke-width:0.264583"
     id="path5-0"
     cx="98.719315"
     cy="28.863916"
     r="11.667261" />
  <circle
     style="fill:#ff0000;fill-opacity:1;stroke-width:0.386604"
     id="path8-4-1"
     cx="16.631035"
     cy="97.838829"
     r="5.2243905" />
  <circle
     style="fill:#f93232;fill-opacity:1;stroke-width:0.184097"
     id="path9-5-90-3"
     cx="14.658378"
     cy="96.188057"
     r="1.8331195" />
  <path
     style="fill:#121212;fill-opacity:1;stroke-width:0.339022"
     id="path12-5"
     sodipodi:type="arc"
     sodipodi:cx="173.42281"
     sodipodi:cy="110.71358"
     sodipodi:rx="51.199024"
     sodipodi:ry="50.475647"
     sodipodi:start="0"
     sodipodi:end="6.2828919"
     sodipodi:open="true"
     sodipodi:arc-type="arc"
     d="m 224.62183,110.71358 a 51.199024,50.475647 0 0 1 -51.19527,50.47564 51.199024,50.475647 0 0 1 -51.20278,-50.46824 51.199024,50.475647 0 0 1 51.18776,-50.483048 51.199024,50.475647 0 0 1 51.21029,50.460838"
     transform="rotate(58.378148)" />
  <path
     style="fill:#121212;fill-opacity:1;stroke-width:0.339022"
     id="path12-5-9"
     sodipodi:type="arc"
     sodipodi:cx="196.13615"
     sodipodi:cy="24.822189"
     sodipodi:rx="51.199024"
     sodipodi:ry="50.475647"
     sodipodi:start="0"
     sodipodi:end="6.2828919"
     sodipodi:open="true"
     sodipodi:arc-type="arc"
     d="m 247.33518,24.822189 a 51.199024,50.475647 0 0 1 -51.19527,50.475647 51.199024,50.475647 0 0 1 -51.20278,-50.468242 51.199024,50.475647 0 0 1 51.18776,-50.48305 51.199024,50.475647 0 0 1 51.21029,50.460835"
     transform="rotate(58.378148)" />
  <path
     style="fill:#121212;fill-opacity:1;stroke-width:0.406339"
     id="path11-4"
     sodipodi:type="arc"
     sodipodi:cx="142.6391"
     sodipodi:cy="68.918457"
     sodipodi:rx="45.010132"
     sodipodi:ry="65.425446"
     sodipodi:start="0"
     sodipodi:end="6.2828919"
     sodipodi:arc-type="arc"
     d="M 187.64923,68.918457 A 45.010132,65.425446 0 0 1 142.6424,134.3439 45.010132,65.425446 0 0 1 97.628968,68.928055 45.010132,65.425446 0 0 1 142.62919,3.4930131 45.010132,65.425446 0 0 1 187.64923,68.899261"
     sodipodi:open="true"
     transform="rotate(58.378148)" />
  <circle
     style="fill:#ff0000;fill-opacity:1;stroke-width:0.339022"
     id="path7-4"
     cx="162.97403"
     cy="39.420746"
     r="7.9571486"
     transform="rotate(58.378148)" />
  <circle
     style="fill:#ff0000;fill-opacity:1;stroke-width:0.339022"
     id="path9-6"
     cx="164.17966"
     cy="74.062469"
     r="3.3757598"
     transform="rotate(58.378148)" />
  <circle
     style="fill:#ff0000;fill-opacity:1;stroke-width:0.339022"
     id="path8-0"
     cx="175.19107"
     cy="56.621044"
     r="4.5813885"
     transform="rotate(58.378148)" />
  <circle
     style="fill:#ff2a2a;fill-opacity:1;stroke-width:0.161439"
     id="path9-5-4"
     cx="173.6687"
     cy="56.476948"
     r="1.6075047"
     transform="rotate(58.378148)" />
  <circle
     style="fill:#ff2a2a;fill-opacity:1;stroke-width:0.258303"
     id="path9-5-9-9"
     cx="158.58623"
     cy="38.811615"
     r="2.5720077"
     transform="rotate(58.378148)" />
  <circle
     style="fill:#ff0000;fill-opacity:1;stroke-width:0.517455"
     id="path8-4-6"
     cx="106.75696"
     cy="167.9147"
     r="6.9926457"
     transform="rotate(-1.1327576)" />
  <circle
     style="fill:#f83131;fill-opacity:1;stroke-width:0.246408"
     id="path9-5-90-6"
     cx="104.97728"
     cy="165.27489"
     r="2.4535599"
     transform="rotate(-1.1327576)" />
  <circle
     style="fill:#f85252;fill-opacity:1;stroke-width:0.0930406"
     id="path9-5-90-7-3"
     cx="104.06876"
     cy="164.37164"
     r="0.92643034"
     transform="rotate(-1.1327576)" />
  <circle
     style="fill:#ff0000;fill-opacity:1;stroke-width:0.386604"
     id="path8-4-1-0"
     cx="165.4454"
     cy="102.21002"
     r="5.2243905"
     transform="rotate(58.378148)" />
  <circle
     style="fill:#f93232;fill-opacity:1;stroke-width:0.184097"
     id="path9-5-90-3-0"
     cx="163.47275"
     cy="100.55925"
     r="1.8331195"
     transform="rotate(58.378148)" />
  <circle
     style="fill:#ff0000;fill-opacity:1;stroke-width:0.264583"
     id="path3"
     cx="12.294533"
     cy="138.50169"
     r="6.5236301" />
  <circle
     style="fill:#ff2a2a;fill-opacity:1;stroke-width:0.258303"
     id="path9-5-9-9-7"
     cx="122.04749"
     cy="61.954498"
     r="2.5720077"
     transform="rotate(58.378148)" />
  <circle
     style="fill:#f85252;fill-opacity:1;stroke-width:0.0930406"
     id="path9-5-90-7-9"
     cx="10.364616"
     cy="136.19688"
     r="0.92643034" />
  <circle
     style="fill:#ff0000;fill-opacity:1;stroke-width:0.264583"
     id="path4"
     cx="37.13451"
     cy="121.9417"
     r="4.7672682" />
  <circle
     style="fill:#ff2a2a;fill-opacity:1;stroke-width:0.14491"
     id="path9-5-9-9-2"
     cx="120.4715"
     cy="32.743843"
     r="1.4429178"
     transform="rotate(58.378148)" />
  <circle
     style="fill:#b1aba7;fill-opacity:1;stroke-width:0.264583"
     id="path5"
     cx="97.979912"
     cy="28.227247"
     r="11.667261" />
  <circle
     style="fill:#b3aeaa;fill-opacity:1;stroke-width:0.103532"
     id="path10-4-8"
     cx="104.31659"
     cy="32.349922"
     r="1.12909" />
  <circle
     style="fill:#c4c0bd;fill-opacity:1;stroke-width:0.184058"
     id="path10"
     cx="92.334465"
     cy="24.338161"
     r="2.0072711" />
  <circle
     style="fill:#b8b2af;fill-opacity:1;stroke-width:0.287591"
     id="path10-0"
     cx="96.406441"
     cy="34.382648"
     r="3.1363609" />
  <circle
     style="fill:#c5c0be;fill-opacity:1;stroke-width:0.103532"
     id="path10-4"
     cx="90.13372"
     cy="30.619019"
     r="1.12909" />
  <circle
     style="fill:#bcb7b3;fill-opacity:1;stroke-width:0.149547"
     id="path10-5"
     cx="101.67552"
     cy="28.611746"
     r="1.6309078" />
  <circle
     style="fill:#bbb7b3;fill-opacity:1;stroke-width:0.241576"
     id="path10-7"
     cx="100.17007"
     cy="22.840845"
     r="2.6345432" />
  <circle
     style="fill:#bcb7b4;fill-opacity:1;stroke-width:0.103532"
     id="path10-4-8-5"
     cx="105.15199"
     cy="23.657803"
     r="1.12909" />
</svg>
