<?xml version="1.0" encoding="UTF-8" standalone="no"?>
<!-- Created with Inkscape (http://www.inkscape.org/) -->

<svg
   width="200mm"
   height="100mm"
   viewBox="0 0 200 100"
   version="1.1"
   id="svg1"
   inkscape:export-filename="vchat3.png"
   inkscape:export-xdpi="96"
   inkscape:export-ydpi="96"
   sodipodi:docname="vchat3.0.svg"
   inkscape:version="1.3.2 (091e20e, 2023-11-25, custom)"
   xmlns:inkscape="http://www.inkscape.org/namespaces/inkscape"
   xmlns:sodipodi="http://sodipodi.sourceforge.net/DTD/sodipodi-0.dtd"
   xmlns="http://www.w3.org/2000/svg"
   xmlns:svg="http://www.w3.org/2000/svg">
  <sodipodi:namedview
     id="namedview1"
     pagecolor="#505050"
     bordercolor="#ffffff"
     borderopacity="1"
     inkscape:showpageshadow="0"
     inkscape:pageopacity="0"
     inkscape:pagecheckerboard="1"
     inkscape:deskcolor="#505050"
     inkscape:document-units="mm"
     inkscape:zoom="1.1072812"
     inkscape:cx="402.78836"
     inkscape:cy="301.18816"
     inkscape:window-width="1920"
     inkscape:window-height="1051"
     inkscape:window-x="-9"
     inkscape:window-y="-9"
     inkscape:window-maximized="1"
     inkscape:current-layer="svg1" />
  <defs
     id="defs1" />
  <g
     id="g1"
     transform="matrix(0.61084264,0,0,0.61084264,-0.98868465,-12.630267)">
    <g
       inkscape:label="Camada 1"
       inkscape:groupmode="layer"
       id="layer1"
       transform="matrix(1.3215273,0,0,1.3215273,-3.1323951,-50.306136)">
      <g
         id="g14"
         transform="translate(0,-0.10283567)">
        <path
           style="fill:#308d62;fill-opacity:1;stroke-width:0.2837"
           d="M 148.6634,160.58161 V 140.76233 A 26.724205,26.724205 0 0 1 121.93907,114.038 26.724205,26.724205 0 0 1 148.6634,87.313664 V 67.494391 A 46.543594,46.543594 0 0 0 102.11979,114.038 46.543594,46.543594 0 0 0 148.6634,160.58161 Z"
           id="path7" />
        <path
           id="rect3-5"
           style="fill:#2fad74;fill-opacity:1;stroke-width:0.404652"
           d="M 122.13415,67.042419 67.810331,160.63206 H 94.68466 l 27.02626,-46.56202 a 26.9727,26.9727 0 0 1 -0.0202,-0.28267 26.9727,26.9727 0 0 1 13.80278,-23.462651 l 13.16974,-22.689571 v -0.592729 z" />
      </g>
      <path
         id="path5"
         style="fill:#2fad74;fill-opacity:1;stroke-width:0.658679"
         inkscape:transform-center-x="2.2419454e-06"
         inkscape:transform-center-y="15.586238"
         d="M 7.4172124,67.016497 34.413497,113.7754 61.409782,160.53379 88.406067,113.7754 115.40184,67.016497 H 89.684026 L 75.546904,91.502858 61.409782,115.9887 47.27266,91.502858 33.13554,67.016497 Z" />
      <path
         id="path4"
         style="fill:#308d62;fill-opacity:1;stroke-width:0.628127"
         inkscape:transform-center-y="14.976327"
         d="M 64.846797,110.03512 61.409594,115.98863 47.272481,91.502759 33.135368,67.016497 H 16.043199 l 25.240961,44.386463 24.06199,42.31241 23.059765,-39.94 26.995925,-46.758873 H 93.284867 L 80.213717,90.001969 66.834041,113.5298 Z" />
      <path
         id="path5-4"
         style="fill:#39c185;fill-opacity:1;stroke-width:0.560728"
         inkscape:transform-center-x="1.9555398e-06"
         inkscape:transform-center-y="13.268442"
         d="M 15.446296,67.016497 38.42802,106.82199 61.409744,146.62704 84.391469,106.82199 107.37276,67.016497 H 85.479385 L 73.444565,87.861547 61.409744,108.70616 49.374924,87.861547 37.340106,67.016497 Z" />
    </g>
  </g>
  <g
     id="g2">
    <path
       id="rect3-5-0-5"
       style="fill:#31b58a;fill-opacity:1;stroke-width:0.199308"
       d="m 172.92356,15.817165 -26.75687,46.097011 h 13.23679 l 13.31162,-22.93384 a 13.285239,13.285239 0 0 1 -0.01,-0.139228 13.285239,13.285239 0 0 1 6.79848,-11.556388 l 6.48667,-11.175609 v -0.291946 z" />
    <rect
       style="fill:#7896f6;fill-opacity:1;stroke-width:0.1914"
       id="rect1"
       width="24.372761"
       height="8.1242533"
       x="148.3871"
       y="61.52927" />
    <path
       id="rect3-5-0"
       style="fill:#31b58a;fill-opacity:1;stroke-width:0.404652"
       d="m 210.98315,66.929845 -54.32381,93.589645 h 26.87432 l 27.02626,-46.56202 a 26.9727,26.9727 0 0 1 -0.0202,-0.28267 26.9727,26.9727 0 0 1 13.80278,-23.462655 l 13.16974,-22.689571 v -0.592729 z"
       transform="matrix(0.80724523,0,0,0.80724523,-2.9020852,-43.359401)" />
    <rect
       style="fill:#6184f5;fill-opacity:1;stroke-width:0.248564"
       id="rect2"
       width="18.040621"
       height="75.627243"
       x="170.66844"
       y="10.690409" />
  </g>
</svg>
